<svg xmlns="http://www.w3.org/2000/svg" viewBox="0 0 128 128" fill="none">
  <defs>
    <linearGradient id="bg" x1="18" y1="12" x2="110" y2="118" gradientUnits="userSpaceOnUse">
      <stop offset="0" stop-color="#16110c"/>
      <stop offset="1" stop-color="#050404"/>
    </linearGradient>
    <linearGradient id="gold" x1="30" y1="20" x2="97" y2="107" gradientUnits="userSpaceOnUse">
      <stop offset="0" stop-color="#f3d48a"/>
      <stop offset="0.42" stop-color="#d4a84e"/>
      <stop offset="1" stop-color="#9b6f22"/>
    </linearGradient>
  </defs>
  <circle cx="64" cy="64" r="58" fill="url(#bg)"/>
  <circle cx="64" cy="64" r="57" stroke="rgba(239,198,109,0.35)" stroke-width="2"/>
  <path d="M64 105c-19.6-4.1-34.4-21.3-34.4-42 0-15.4 5.7-30.7 16.7-44.5l18 16.9 18-16.9C93.3 32.3 99 47.6 99 63c0 20.7-14.8 37.9-35 42z" stroke="url(#gold)" stroke-width="7.4" stroke-linecap="round" stroke-linejoin="round"/>
  <path d="M64 35.5c-9.2 9.9-13.7 19-13.7 27.7 0 10.5 5.6 19.3 13.7 25.2 8.2-5.9 13.7-14.7 13.7-25.2 0-8.7-4.5-17.8-13.7-27.7z" stroke="url(#gold)" stroke-width="7.4" stroke-linecap="round" stroke-linejoin="round"/>
  <path d="M64 36v52" stroke="url(#gold)" stroke-width="6.3" stroke-linecap="round"/>
</svg>
